<svg id="Layer_1" data-name="Layer 1" xmlns="http://www.w3.org/2000/svg" viewBox="0 0 394.04 63.01"><defs><style>.cls-1{fill:#30be9c;}.cls-2{fill:#30bd9b;}</style></defs><path class="cls-1" d="M234.51,55.06l16.25,25.76H237.67c-4.89-8.36-9.92-16.94-15-25.57h-6.77V80.68a52.63,52.63,0,0,1-11.2.16V19.34c8.89.46,17.65-1,26.29.85,8.34,1.78,13.41,7.21,14.56,14.87s-2.14,13.79-9.84,18.25A1.89,1.89,0,0,0,234.51,55.06Zm-18.39-9c4.46,0,8.5.62,12.46-.66s6-4,5.86-7.77a8.09,8.09,0,0,0-6.09-7.69c-3.95-1.17-8-.75-12.23-.5Z" transform="translate(-11.19 -19.15)"/><path class="cls-1" d="M68.93,80.85a81.44,81.44,0,0,1-12.34,0c-1.54-4.21-3.07-8.36-4.64-12.66H28.41l-4.82,12.7H11.19L35.66,19.6h8.91ZM40.69,37.73l-1-.14c-2.45,6.73-4.89,13.46-7.44,20.49H48C45.49,51.07,43.09,44.4,40.69,37.73Z" transform="translate(-11.19 -19.15)"/><path class="cls-1" d="M164.84,41.58c5.29-4.41,10.4-6.09,16.22-4.73a15,15,0,0,1,12,14.08c.47,9.81.12,19.66.12,29.7a38.34,38.34,0,0,1-10.93.12c0-5,0-9.8,0-14.63,0-3.92,0-7.84-.18-11.75-.24-4.77-2.18-7.24-6-8a9.24,9.24,0,0,0-9.72,5.06,19.28,19.28,0,0,0-1.6,8.68c0,6.74,0,13.48,0,20.39-3.66.93-7.1.44-10.85.39V19.61h10.91Z" transform="translate(-11.19 -19.15)"/><path class="cls-2" d="M293.5,62.83H264.77a6.93,6.93,0,0,0,3.85,7.68c6,3.36,11.43,1.27,16.41-2.75A45.49,45.49,0,0,1,292.4,74a20.89,20.89,0,0,1-13.79,7.7c-10.2,1.61-19-2.29-23.37-10.08-4.64-8.24-3.75-20.83,2.08-28,5.57-6.83,13.1-8.28,21.22-6.89,7.85,1.35,12.49,6.55,14.55,14.08A22.15,22.15,0,0,1,293.5,62.83ZM283,54.93c-.83-6.38-4.43-9.76-9.74-9.5s-8.65,4-8.67,9.5Z" transform="translate(-11.19 -19.15)"/><path class="cls-1" d="M101.13,37.46h10.59V80.78H101.55c-1.16-.72-.19-2.27-1-3.19a2.18,2.18,0,0,0-.77.18c-12.1,9-24.92,3.69-27.11-11.26a41.18,41.18,0,0,1-.27-5.67c0-7.67,0-15.35,0-23.2a37.56,37.56,0,0,1,10.73-.15c.67,3.23.27,6.34.34,9.42.14,6.07-.31,12.17.34,18.23.41,3.9,2.24,6.07,5.35,6.8a8.81,8.81,0,0,0,9.24-3.6,16.68,16.68,0,0,0,2.43-8.88c.11-6,.08-11.89.13-17.84C100.93,40.3,101.05,39,101.13,37.46Z" transform="translate(-11.19 -19.15)"/><path class="cls-1" d="M323,50.47c-2.72-4.61-6.52-6.11-11.24-5a3.09,3.09,0,0,0-2.46,4.07c1.21,2,3.36,2.46,5.41,3.09a52.28,52.28,0,0,1,9.51,3.4,13.22,13.22,0,0,1,3.38,20.7c-8.21,8.73-27.92,6.3-31.7-6.8,2.11-2.12,5.05-2.71,7.6-3.83,1.66.53,1.83,2.08,2.61,3.12A9,9,0,0,0,317,72.18c1.91-.82,3.18-2.14,3.25-4.23s-1.59-3.07-3.27-3.64c-2.67-.92-5.44-1.56-8.13-2.43-7.88-2.55-10.52-5.93-10.23-13,.26-6.16,4.48-10.86,11.58-12.17,8-1.48,16.73.6,20.94,8.91C329,47.86,326.16,48.93,323,50.47Z" transform="translate(-11.19 -19.15)"/><path class="cls-1" d="M123.88,46.29,117.93,46c-1-2.8-.55-5.55-.32-8.26,2.14-1.17,4.44,0,6.59-1,.76-3.1,0-6.36.57-10.2l10.38-7.4V36.54c3.7,1.37,7.14.17,10.6,1,1.1,2.62.29,5.38.47,8.26-3.56.85-7,0-10.84.7,0,7.55-.39,15,.3,22.52.2,2.18,1.87,3.06,4,3.22s3.93-.8,6.14-.84a27.2,27.2,0,0,1,.21,9.13c-3.86,1.82-7.81,1.72-11.63,1.1-6.1-1-9.85-5.63-10-12s0-12.42,0-18.63C124.41,49.54,124.72,48,123.88,46.29Z" transform="translate(-11.19 -19.15)"/><polygon class="cls-1" points="344.28 34.12 354.03 41.39 377.36 19.01 354.61 48.27 344.28 34.12"/><path class="cls-1" d="M400,61.11l4.73-8.65v.23l-8.49-14.12L387.86,24.4l.63.36-8.24.1-8.24.05L355.54,25l.8-.46-8.18,14.3-8.29,14.24v-.94l8.19,14.3q4.11,7.14,8.12,14.33l-.64-.37,16.47.19c5.49,0,11,.2,16.48.29l-.23.13q2.91-4.83,5.87-9.64-2.69,5-5.42,9.9l-.07.13h-.15c-5.49.09-11,.24-16.48.29l-16.47.2h-.42l-.23-.38q-4.22-7.07-8.35-14.2l-8.29-14.23-.27-.47.27-.47,8.19-14.3,8.29-14.24.27-.46h.54l16.47.06,8.24,0,8.24.1h.42l.2.36L397.18,38l8,14.42.07.12-.07.11Z" transform="translate(-11.19 -19.15)"/></svg>